<svg xmlns="http://www.w3.org/2000/svg" viewBox="0 0 1024 1024">
<defs><linearGradient id="bg" x1="0" y1="0" x2="0.18" y2="1"><stop offset="0" stop-color="#fdfbf6"></stop><stop offset="1" stop-color="#eee7d6"></stop></linearGradient></defs>
<rect width="1024" height="1024" fill="url(#bg)"></rect>
<svg viewBox="0 0 100 100" width="1024" height="1024">
<circle cx="50" cy="50" r="39.5" fill="none" stroke="#39404d" stroke-width="2.2"></circle>
<path d="M50 32 L52 50 L50 68 L48 50 Z" transform="rotate(45 50 50)" fill="rgba(57,64,77,.3)"></path>
<path d="M50 32 L52 50 L50 68 L48 50 Z" transform="rotate(-45 50 50)" fill="rgba(57,64,77,.3)"></path>
<g stroke="#39404d" stroke-width="1.6" stroke-linejoin="round"><path d="M50 13 L56.5 50 L43.5 50 Z" fill="#002868"></path><path d="M50 87 L56.5 50 L43.5 50 Z" fill="#006847"></path><path d="M13 50 L50 43.5 L50 56.5 Z" fill="#ce1126"></path><path d="M87 50 L50 43.5 L50 56.5 Z" fill="#fff"></path></g>
<circle cx="50" cy="50" r="6" fill="#39404d"></circle>
<circle cx="50" cy="50" r="2.4" fill="#9aa1ab"></circle>
</svg>
</svg>